<svg xmlns="http://www.w3.org/2000/svg" width="100" height="100" viewBox="0 0 100 100" shape-rendering="geometricPrecision">
  <style>
    .tile { fill:#0071E3; }
    @media (prefers-color-scheme: dark) { .tile { fill:#0A84FF; } }
  </style>
  <path class="tile" d="M100.00 50.00 L99.96 66.80 L99.83 72.14 L99.61 76.01 L99.31 79.12 L98.92 81.75 L98.44 84.05 L97.87 86.08 L97.20 87.89 L96.44 89.52 L95.58 91.00 L94.61 92.33 L93.53 93.53 L92.33 94.61 L91.00 95.58 L89.52 96.44 L87.89 97.20 L86.08 97.87 L84.05 98.44 L81.75 98.92 L79.12 99.31 L76.01 99.61 L72.14 99.83 L66.80 99.96 L50.00 100.00 L33.20 99.96 L27.86 99.83 L23.99 99.61 L20.88 99.31 L18.25 98.92 L15.95 98.44 L13.92 97.87 L12.11 97.20 L10.48 96.44 L9.00 95.58 L7.67 94.61 L6.47 93.53 L5.39 92.33 L4.42 91.00 L3.56 89.52 L2.80 87.89 L2.13 86.08 L1.56 84.05 L1.08 81.75 L0.69 79.12 L0.39 76.01 L0.17 72.14 L0.04 66.80 L0.00 50.00 L0.04 33.20 L0.17 27.86 L0.39 23.99 L0.69 20.88 L1.08 18.25 L1.56 15.95 L2.13 13.92 L2.80 12.11 L3.56 10.48 L4.42 9.00 L5.39 7.67 L6.47 6.47 L7.67 5.39 L9.00 4.42 L10.48 3.56 L12.11 2.80 L13.92 2.13 L15.95 1.56 L18.25 1.08 L20.88 0.69 L23.99 0.39 L27.86 0.17 L33.20 0.04 L50.00 0.00 L66.80 0.04 L72.14 0.17 L76.01 0.39 L79.12 0.69 L81.75 1.08 L84.05 1.56 L86.08 2.13 L87.89 2.80 L89.52 3.56 L91.00 4.42 L92.33 5.39 L93.53 6.47 L94.61 7.67 L95.58 9.00 L96.44 10.48 L97.20 12.11 L97.87 13.92 L98.44 15.95 L98.92 18.25 L99.31 20.88 L99.61 23.99 L99.83 27.86 L99.96 33.20 L100.00 50.00 Z"/>
  <circle cx="50" cy="50" r="27" fill="none" stroke="#fff" stroke-opacity=".28" stroke-width="11"/>
  <circle cx="50" cy="50" r="27" fill="none" stroke="#fff" stroke-width="11" stroke-linecap="round"
          stroke-dasharray="127.2 42.5" transform="rotate(-90 50 50)"/>
</svg>
